<?xml version="1.0" encoding="UTF-8"?>
<svg id="Layer_2" data-name="Layer 2" xmlns="http://www.w3.org/2000/svg" viewBox="0 0 316.68 607.45">
  <defs>
    <style>
      .cls-1 {
        fill: #fff;
      }
    </style>
  </defs>
  <g id="Layer_2-2" data-name="Layer 2">
    <g>
      <g>
        <path class="cls-1" d="M297.19,396.81c-6.36,4.03-12.52,8.41-19.16,11.99-14.11,7.59-29.42,13.3-45,16.97-17.97,4.24-37.04,5.91-55.27,2.38-19.26-3.73-37.33-13.12-51.54-26.64-1.83-1.74-3.58-3.57-5.25-5.45,8.79-17.06,20.35-32.7,33.37-46.96,4.51,5.32,9.26,10.44,14.4,15.32,10.54,10.01,24.47,15.14,39.1,14.29,14.94-.87,24.36-13.72,31.96-25.13,6.2-9.32,18.3-10.48,28.63-10.93,8.84-.38,17.69.5,26.34,2.3,2.45.51,7.91,3.16,10.35,1.69,2.17-1.31,2.61-6.01,3.19-8.08,2.83-10.14,6.44-20.55,8.16-30.95,1.06-6.42-1.73-13.26-4.22-19.04-3.88-9.01-9.11-17.75-15.44-25.26-6.15-7.3-14.2-10.26-22.5-4.21-6.85,4.99-12.34,13.18-15.2,21.03-3.11,8.51-5.08,17.53-7.4,26.28-.61,2.28-1.24,4.56-1.85,6.85-.47,1.67-.76,2.79-.87,3.37-.21.85-.42,1.7-.61,2.55-8.28,12.77-19.07,24.13-35.39,23.29-7.93-.41-16.03-1.95-23.12-5.66-4.84-2.53-8.99-6.14-12.87-9.99.95-.85,1.9-1.69,2.85-2.53,4.68-4.1,9.48-8.07,14.37-11.92.6-.47,1.54-5.23,1.55-5.27,1.19-4.26,2.34-8.52,3.48-12.79,1.14-4.27,2.28-8.54,3.38-12.82.25-.99.62-4.81,1.29-5.34-14.13,11.11-27.73,23.35-39.94,36.78-3.55-4.06-6.94-8.23-10.12-12.64-2.82-3.92-5.63-7.89-8.32-11.91,8.61-5.76,19.29-9.21,28.59-11.55.33-.08,1.71-5.86,1.55-5.27,1.19-4.26,2.34-8.52,3.48-12.79,1.14-4.27,2.28-8.54,3.38-12.82.16-.63.98-5.26,1.29-5.34-14.06,3.54-29.82,9.16-38.84,21.19-1.93,2.58-3.4,5.37-4.41,8.43-3.4,10.3-5.86,21.02-8.55,31.52-1.01,3.93-2.29,7.96-1.64,12.05.67,4.18,3.36,7.71,5.69,11.12,2.8,4.09,5.67,8.1,8.6,12.04-5.8,8.28-11.02,16.94-15.5,26-4.67,9.44-8.28,19.33-11.37,29.4-18.27-22.73-26.65-53.76-28.69-82.12-.86-11.89-.33-23.84-.17-35.74.02-1.71.04-3.43.06-5.14,1.19-.18,2.37-.36,3.56-.53,7.02-1,13.33-3,19.48-6.59,8.74-5.1,15.34-12.61,18.53-22.29,3.31-10.06,5.81-20.46,8.42-30.73.51-1.76.79-2.87.85-3.35,1.21-4.83,2.25-9.61,2.4-14.63.43-14.58-.41-29.31-.51-43.9-.07-10.1-.14-28.78-.2-43.96,5.14,5.16,10.28,10.33,15.42,15.49-.75-.76-1-4.18-1.29-5.34-1.1-4.28-2.24-8.55-3.38-12.82-1.14-4.27-2.3-8.54-3.48-12.79-.1-.37-.87-4.58-1.55-5.27-7.93-7.97-15.86-15.94-23.79-23.91.75.76,1,4.18,1.29,5.34,1.1,4.28,2.24,8.55,3.38,12.82,1.1,4.11,2.21,8.22,3.35,12.32.33,37.35.23,90.74.91,127.47,0,.16,0,.32.01.48-3.44,3.95-7.52,7.22-12.49,9.88-5.65,3.02-11.32,4.67-17.63,5.56-4.28.61-8.57,1.31-12.83,2.14.03-2.05.05-4.11.08-6.16.52-41.93,1.14-83.86,1.98-125.79.08-4.21.16-8.13.24-11.97.12-.58.21-1.02.24-1.12,1.19-4.26,2.34-8.52,3.48-12.79,1.14-4.27,2.28-8.54,3.38-12.82.3-1.15.54-4.58,1.29-5.34-7.93,7.97-15.86,15.94-23.79,23.91-.68.69-1.45,4.9-1.55,5.27-1.19,4.26-2.34,8.52-3.48,12.79-1.14,4.27-2.28,8.54-3.38,12.82-.3,1.15-.54,4.58-1.29,5.34,5.31-5.34,10.62-10.67,15.93-16.01-1.02,44.62-1.68,89.25-2.3,133.87-2.41.59-4.8,1.23-7.17,1.93-19.03,5.63-31.41,18.42-38.67,36.75-2.27,5.72-3.45,12.12-5.03,18.06-1.09,4.09-1.85,8.52-2.95,12.74-.47,1.15-.87,2.32-1.23,3.48-.33,1.07-.66,2.14-1,3.22-.17.11-.56,1.39-1.17,3.82-2.46,8.05-4.79,16.34-5.92,24.57-3.87,2.23-7.76,4.95-9.32,8.9-2.96,7.45-4.47,15.88-6.46,23.63-.93,3.61-2.35,7.9-.24,11.4,3.17,5.27,12.14,8.22,17.23,10.82,5.98,3.05,10.77,6.09,14.83,11.74,9.66,13.45,9.61,29.61,10.04,45.42.64,23.68.47,47.38-.09,71.05.02-.99.92-3.11,1.14-3.86.87-3.12,1.72-6.25,2.56-9.38,1.11-4.14,3.32-9,3.43-13.32.63-26.7.84-53.45-.21-80.14-.45-11.55-1.48-22.79-7.56-32.98-5.41-9.08-12.48-12.7-21.41-17.36-1.72-.9-3.68-1.8-5.59-2.81,4.7-2.32,9.7-3.96,14.22-4.64,6.53-.98,13.23-.51,19.59,1.21,3.53.95,7.2,2.67,9.32-1.37,1.48-2.82,1.98-6.61,2.81-9.65,1.63-5.98,3.66-12.08,4.76-18.19,1-5.55-.39-12.29-2.39-17.48-4.09-10.62-14.61-26.34-27.94-19.55-1.31.67-2.48,1.51-3.53,2.48,6.89-10.05,16.32-17.58,28.82-21.63,6.08-1.97,12.36-3.47,18.69-4.68-.23,17.13-.47,34.26-.72,51.4-.51,33.89,4.5,68.13,22.85,97.41,1.91,3.04,3.99,5.95,6.21,8.74-4.63,19.32-3.96,38.22,4.46,56.59,13.58,29.62,44.34,47.35,76.21,50.06,31.33,2.66,62-8.95,84.56-30.53,12.59-12.05,22.91-27.41,28.98-43.74.88-2.38,1.71-4.8,2.52-7.23.05.1.32-.72.8-2.46,3.74-11.75,6.65-23.95,9.22-35.87.62-2.87,1.05-5.77,1.27-8.69.29-3.92,1.18-9.36-.8-12.98-3.79-6.92-13.97.55-18.16,3.21ZM249.45,316.08c.14-.32.3-.71.48-1.19.29-.75.61-1.49.96-2.23,1.14-2.45,2.53-4.77,4.1-6.97,2.21-3.1,4.66-6.16,7.52-8.69,7.18-6.38,15.65-6.74,22.53.24,2.85,2.89,5.41,6.17,7.75,9.64-4.17-.43-8.35-.62-12.52-.53-11.34.25-24.63,1.32-31.24,11.74-.11.18-.23.36-.35.54.25-.85.5-1.7.77-2.55ZM45.57,323.82c2.94,2.67,5.65,6.15,7.88,10.02-1.71-.41-3.43-.76-5.23-.92-9.47-.85-18.1,1.15-26.37,5.78-1.45.81-3.09,1.67-4.72,2.61.54-3.2,1.51-6.35,2.58-9.49.3-.68.62-1.36.97-2.02.63-1.18,1.34-2.33,2.16-3.39,1.7-2.22,3.84-4.18,6.4-5.36,5.44-2.5,11.99-1.18,16.34,2.78ZM298.65,449.84c-14.83,21.58-36.34,38.03-61.62,45.16-32.97,9.3-71.75,2.78-97.1-21.31-9.78-9.3-16.89-20.99-21.14-33.77-.02-.07-.04-.15-.07-.22,16,14.5,36.71,23.75,58.32,26,31.39,3.28,64.86-6.13,92.24-21.21,6.73-3.71,12.96-8.23,19.48-12.27,4.11-2.55,13.31-8.92,16.88-2.4.97,1.78,1.22,4.02,1.21,6.28-2.42,4.74-5.17,9.32-8.2,13.74Z"/>
        <path class="cls-1" d="M288.55,203.66c.68,5.18.82,10.38.86,15.6-.02-2.39,1.96-4.82,1.94-7.24-.03-3.93-.08-7.86-.42-11.78-.16-1.83-.48-3.63-.64-5.44,3.28-3.62,9.05-2.28,13.85-2.21,3.67.06,4.38-5.94,4.84-9.03.71-4.86-5.25-14-10.12-8.14-2.02,2.42-2.83,6.63-3.41,10.08-3.36,1.06-4.59,3.82-5.51,7.2-.35,1.29-.67,2.49-.94,3.66-.08.31-.17.62-.25.93.03-.07.07-.13.1-.21-.43,2.1-.62,4.17-.3,6.57ZM295.81,184.77c2.54-6.05,7.77-3.81,10.13.59-3.04.34-7.5-.46-9.25-.16-.39.07-.74.16-1.08.26.07-.23.13-.46.2-.69Z"/>
        <path class="cls-1" d="M1.05,272.05c.68,5.18.82,10.38.86,15.6-.02-2.39,1.96-4.82,1.94-7.24-.03-3.93-.08-7.86-.42-11.78-.16-1.83-.48-3.63-.64-5.44,3.28-3.62,9.05-2.28,13.85-2.21,3.67.06,4.38-5.94,4.84-9.03.71-4.86-5.25-14-10.12-8.14-2.02,2.42-2.83,6.63-3.41,10.08-3.36,1.06-4.59,3.82-5.51,7.2-.35,1.29-.67,2.49-.94,3.66-.08.31-.17.62-.25.93.03-.07.07-.13.1-.21-.43,2.1-.62,4.17-.3,6.57ZM8.31,253.16c2.54-6.05,7.77-3.81,10.13.59-3.04.34-7.5-.46-9.25-.16-.39.07-.74.16-1.08.26.07-.23.13-.46.2-.69Z"/>
        <path class="cls-1" d="M144.82,51.3s7.33.1,14.41-13.63c0,0-5.52,5.17-13.69.42-4.38-2.54-5.3-7.68-5.21-11.9.07-3.28.8-6.5,2-9.56,1.7-4.32,5.2-12.34,9.28-16.64,0,0-19.44,14.02-21.19,36.52,0,0-1.67,15.21,14.41,14.78Z"/>
        <polygon class="cls-1" points="223.09 185.63 178.96 202.91 172.77 212.08 217.27 194.43 223.09 185.63"/>
        <path class="cls-1" d="M182.95,163.7c.61-.22,1.08-.73,1.25-1.35l.61-2.14,9.17,21.7,10.15-24.21s3.97-7.95,9.48,2.14l3.46-12.9s-4.3-8.61-8.52-3.55c-.47.56-.82,1.21-1.1,1.87l-10.09,23.39-8.34-19.74s-2.28-6.82-6.05-3.32c-.91.85-1.52,1.98-1.87,3.18l-3.32,11.51s-1.33,5.81,5.17,3.4Z"/>
        <path class="cls-1" d="M38.4,61.41c.61-.22,1.08-.73,1.25-1.35l.61-2.14,9.17,21.7,10.15-24.21s3.97-7.95,9.48,2.14l3.46-12.9s-4.3-8.61-8.52-3.55c-.47.56-.82,1.21-1.1,1.87l-10.09,23.39-8.34-19.74s-2.28-6.82-6.05-3.32c-.91.85-1.52,1.98-1.87,3.18l-3.32,11.51s-1.33,5.81,5.17,3.4Z"/>
      </g>
      <g>
        <polygon class="cls-1" points="80.14 572.52 79.84 572.44 68.26 589.6 56.68 572.44 56.38 572.52 56.38 572.44 51.48 572.44 51.48 607.45 56.38 607.45 56.38 580.45 68.23 597.9 80.14 580.34 80.14 607.45 85.04 607.45 85.04 572.44 80.14 572.44 80.14 572.52"/>
        <path class="cls-1" d="M111.55,572.44h-5l-14.1,35.01h5.25l3.7-9.35h15.56l3.7,9.35h5.25l-14.11-35.01h-.25ZM103.14,593.7l6.04-15.25,6.04,15.25h-12.07Z"/>
        <path class="cls-1" d="M148.41,572.44h-5l-14.1,35.01h5.25l3.7-9.35h15.56l3.7,9.35h5.25l-14.11-35.01h-.25ZM140,593.7l6.04-15.25,6.04,15.25h-12.07Z"/>
        <polygon class="cls-1" points="175.07 572.44 170.17 572.44 170.17 607.45 173.92 607.45 175.07 607.45 191.32 607.45 191.32 602.95 175.07 602.95 175.07 572.44"/>
        <polygon class="cls-1" points="203.78 591.75 218.33 591.75 218.33 587.35 203.78 587.35 203.78 576.94 219.93 576.94 219.93 572.44 203.78 572.44 202.98 572.44 198.88 572.44 198.88 607.45 202.98 607.45 203.78 607.45 220.03 607.45 220.03 602.95 203.78 602.95 203.78 591.75"/>
        <polygon class="cls-1" points="259.6 572.44 259.6 572.52 259.3 572.44 247.72 589.6 236.14 572.44 235.84 572.52 235.84 572.44 230.94 572.44 230.94 607.45 235.84 607.45 235.84 580.45 247.69 597.9 259.6 580.34 259.6 607.45 264.5 607.45 264.5 572.44 259.6 572.44"/>
      </g>
    </g>
  </g>
</svg>